# xmcd CD database file
#
# Track frame offsets:
#	150
#	18095
#	37674
#	57181
#	75233
#	100097
#	117504
#	136026
#	151427
#	173071
#
# Disc length: 2583 seconds
#
# Revision: 0
# Processed by: cddbd v1.5.1PL0 Copyright (c) Steve Scherf et al.
# Submitted via: CDex 1.51
#
DISCID=650a150a
DTITLE=Rodolfo Guerra y Sincopa Latina - Puerto Rico
DYEAR=2004
DGENRE=Salsa
TTITLE0=La vida es un festival
TTITLE1=Està pegao
TTITLE2=Abril
TTITLE3=El perro
TTITLE4=Rosita
TTITLE5=Puerto Rico
TTITLE6=Es la musica
TTITLE7=Decides tu
TTITLE8=Mé llama
TTITLE9=Tumbao
EXTD=YEAR: 2004
EXTT0=
EXTT1=
EXTT2=
EXTT3=
EXTT4=
EXTT5=
EXTT6=
EXTT7=
EXTT8=
EXTT9=
PLAYORDER=
